# xmcd
#
# Track frame offsets: 
#        150
#        22879
#        43400
#        64887
#        77413
#        99126
#        131018
#        146830
#        158607
#        179836
#        196163
#        216086
#        251632
#        273046
#        294406
#
# Disc length: 4103 seconds
#
# Revision: 0
# Processed by: cddbd v1.5.1PL2 Copyright (c) Steve Scherf et al.
# Submitted via: ExactAudioCopy v0.90b4
#
DISCID=d410050f
DTITLE=Various Artist - Christmastime In Cowtown Vol III
DYEAR=2002
DGENRE=Blues
TTITLE0=Ray Sharpe - Run Rudolph Run
TTITLE1=Chris Zales - Christmastime In Texas
TTITLE2=Lisa Matthews - Christmas Time Again
TTITLE3=Smart Like Einstein - Cadillac For Christmas
TTITLE4=Robert Ealy - Merry Christmas Baby
TTITLE5=Dave Milsap - Santa Claus, Santa Claus
TTITLE6=Oklin Bloodworth - White Christmas
TTITLE7=Paul Byrd - Christmas Wish
TTITLE8=Landon Spradlin - Silent Night
TTITLE9=Johnny 'Red' Latham - Angel Said To Mary
TTITLE10=Kathleen Jackson - Hot Buttered Rum
TTITLE11=J. B. Wynn - I Just Want To Wish You A Merry Christmas
TTITLE12=Blue Lisa and The Howling Dogs - I'm Mrs. Santa
TTITLE13=Bruton and Price Swingmasters Review - (Got Them) Santa Claus B
TTITLE13=lues
TTITLE14=Luther Joe Pybus - Santa Claus Comes To Town
EXTD=
EXTT0=
EXTT1=
EXTT2=
EXTT3=
EXTT4=
EXTT5=
EXTT6=
EXTT7=
EXTT8=
EXTT9=
EXTT10=
EXTT11=
EXTT12=
EXTT13=
EXTT14=
PLAYORDER=
